<svg viewBox="0 0 480 260" xmlns="http://www.w3.org/2000/svg" role="img" aria-hidden="true">
  <!-- Stylized but geographically honest street map of Osijek:
       Drava along the top, pedestrian bridge, Gornji grad / centar left,
       Perivoj kralja Tomislava mid, Tvrđa star fortress on the river bank
       right, Vukovarska cesta sweeping across the lower half with the
       Hedonist pin at no. 31 (Eurodom), near its western end. -->
  <defs>
    <linearGradient id="water" x1="0" y1="0" x2="0" y2="1">
      <stop offset="0" stop-color="#2b4a5a"/>
      <stop offset="1" stop-color="#1d3441"/>
    </linearGradient>
    <radialGradient id="pinGlow" cx="50%" cy="50%" r="50%">
      <stop offset="0" stop-color="#e4c88f" stop-opacity="0.5"/>
      <stop offset="1" stop-color="#e4c88f" stop-opacity="0"/>
    </radialGradient>
    <radialGradient id="vignette" cx="50%" cy="46%" r="72%">
      <stop offset="0.62" stop-color="#000" stop-opacity="0"/>
      <stop offset="1" stop-color="#000" stop-opacity="0.4"/>
    </radialGradient>
    <filter id="grain">
      <feTurbulence type="fractalNoise" baseFrequency="0.9" numOctaves="2" stitchTiles="stitch" result="noise"/>
      <feColorMatrix in="noise" type="matrix" values="0 0 0 0 0  0 0 0 0 0  0 0 0 0 0  0 0 0 0.04 0"/>
    </filter>
  </defs>

  <rect width="480" height="260" fill="#1c140e"/>

  <!-- north bank: floodplain green, a few trees -->
  <path d="M0 0 H480 V64 C 400,56 340,44 300,48 C 240,54 200,72 150,70 C 90,68 40,52 0,56 Z" fill="#242c1a"/>
  <g fill="#314021" opacity="0.9">
    <circle cx="60" cy="34" r="5" fill="#314021"/><circle cx="78" cy="42" r="4" fill="#314021"/>
    <circle cx="210" cy="36" r="5" fill="#314021"/><circle cx="228" cy="30" r="4" fill="#314021"/>
    <circle cx="360" cy="26" r="5" fill="#314021"/><circle cx="392" cy="34" r="4" fill="#314021"/>
  </g>

  <!-- Drava -->
  <path d="M0 56 C 40,52 90,68 150,70 C 200,72 240,54 300,48 C 340,44 400,56 480,64
           L480 92 C 400,84 342,72 302,76 C 244,82 202,98 152,96 C 92,94 42,78 0,82 Z"
        fill="url(#water)"/>
  <g stroke="#4a7088" stroke-width="0.8" fill="none" opacity="0.35">
    <path d="M20 70 C 60,66 100,78 150,80"/>
    <path d="M210 82 C 250,72 290,62 330,60"/>
    <path d="M370 62 C 410,62 440,68 470,74"/>
  </g>
  <text x="235" y="70" font-family="Georgia, 'Times New Roman', serif" font-style="italic"
        font-size="11" fill="#9fc2d2" opacity="0.85" transform="rotate(-4 235 70)">Drava</text>

  <!-- city blocks, faint -->
  <g fill="#2a1e14" stroke="#17110d" stroke-width="0.6" opacity="0.85">
    <rect x="38" y="120" width="30" height="20" transform="rotate(-3 53 130)"/>
    <rect x="34" y="150" width="26" height="22" transform="rotate(-3 47 161)"/>
    <rect x="76" y="118" width="26" height="18" transform="rotate(-3 89 127)"/>
    <rect x="120" y="112" width="30" height="20" transform="rotate(-4 135 122)"/>
    <rect x="164" y="108" width="28" height="18" transform="rotate(-5 178 117)"/>
    <rect x="70" y="176" width="30" height="20" transform="rotate(2 85 186)"/>
    <rect x="112" y="216" width="34" height="18" transform="rotate(2 129 225)"/>
    <rect x="164" y="220" width="30" height="18" transform="rotate(2 179 229)"/>
    <rect x="218" y="222" width="34" height="18" transform="rotate(1 235 231)"/>
    <rect x="272" y="224" width="30" height="18"/>
    <rect x="326" y="224" width="34" height="18"/>
    <rect x="386" y="222" width="30" height="18" transform="rotate(-1 401 231)"/>
    <rect x="252" y="150" width="30" height="20" transform="rotate(-6 267 160)"/>
    <rect x="296" y="142" width="26" height="20" transform="rotate(-6 309 152)"/>
    <rect x="360" y="140" width="30" height="22" transform="rotate(-3 375 151)"/>
    <rect x="404" y="132" width="28" height="22" transform="rotate(-3 418 143)"/>
    <rect x="420" y="176" width="30" height="20"/>
  </g>

  <!-- Perivoj kralja Tomislava (park) -->
  <path d="M206 132 C 224,124 244,126 250,136 C 256,146 244,158 226,160 C 208,162 198,150 206,132 Z"
        fill="#33421f" opacity="0.9"/>
  <circle cx="222" cy="140" r="4" fill="#3f5226"/><circle cx="236" cy="146" r="4" fill="#3f5226"/>

  <!-- streets: thin grid first, then the two named arteries -->
  <g stroke="#f4ecdb" stroke-opacity="0.16" stroke-width="1" fill="none">
    <path d="M108 100 L 92 238"/>
    <path d="M158 98 L 146 240"/>
    <path d="M212 96 L 206 240"/>
    <path d="M262 100 L 266 240"/>
    <path d="M318 108 L 326 240"/>
    <path d="M378 104 L 384 238"/>
    <path d="M30 128 C 140,120 240,108 330,102"/>
    <path d="M28 172 C 150,168 300,158 470,148"/>
  </g>

  <!-- Europska avenija: centar -> Tvrđa -->
  <path d="M84 152 C 150,140 240,120 318,102" stroke="#c9a063" stroke-opacity="0.55" stroke-width="2.2" fill="none"/>
  <text x="168" y="126" font-family="Jost, 'Segoe UI', sans-serif" font-size="7.5" letter-spacing="0.08em"
        fill="#f4ecdb" opacity="0.5" transform="rotate(-8 168 126)">EUROPSKA AVENIJA</text>

  <!-- Vukovarska cesta: the artery Hedonist lives on -->
  <path d="M64 188 C 140,198 230,208 310,211 C 380,214 440,213 480,211"
        stroke="#e4c88f" stroke-opacity="0.85" stroke-width="3" fill="none"/>
  <text x="284" y="204" font-family="Jost, 'Segoe UI', sans-serif" font-size="8" letter-spacing="0.1em"
        fill="#e4c88f" opacity="0.75" transform="rotate(1 284 204)">VUKOVARSKA CESTA</text>

  <!-- pedestrian suspension bridge -->
  <g stroke="#d8c49a" stroke-width="1.1" fill="none" opacity="0.9">
    <path d="M148 92 L 158 46"/>
    <path d="M150 84 L 143 62 M152 76 L 165 54"/>
    <path d="M143 62 L 146 56 M165 54 L 168 48"/>
  </g>

  <!-- centar: trg + co-cathedral spire -->
  <g>
    <rect x="76" y="146" width="12" height="11" fill="#3d2e20" stroke="#c9a063" stroke-opacity="0.5" stroke-width="0.8"/>
    <path d="M92 146 l4 -14 l4 14 Z" fill="#c9a063" opacity="0.9"/>
    <rect x="94" y="146" width="4" height="10" fill="#3d2e20"/>
    <text x="66" y="172" font-family="Jost, 'Segoe UI', sans-serif" font-size="8" letter-spacing="0.14em"
          fill="#f4ecdb" opacity="0.65">CENTAR</text>
  </g>

  <!-- Tvrđa: star fortress on the river bank -->
  <g transform="translate(340,102)">
    <path d="M0 -26 L7 -12 L24 -16 L14 -3 L26 9 L9 9 L5 26 L-5 22 L-14 26 L-11 9 L-26 6 L-14 -5 L-22 -18 L-7 -13 Z"
          fill="#2e2114" stroke="#c9a063" stroke-width="1.4" stroke-linejoin="round" opacity="0.95"/>
    <g fill="#4a3826">
      <rect x="-8" y="-7" width="7" height="6"/>
      <rect x="1" y="-7" width="7" height="6"/>
      <rect x="-8" y="1" width="7" height="6"/>
      <rect x="1" y="1" width="7" height="6"/>
    </g>
    <path d="M-1 -7 l3 -6 l3 6 Z" fill="#c9a063"/>
    <text x="0" y="40" text-anchor="middle" font-family="Jost, 'Segoe UI', sans-serif" font-size="9"
          letter-spacing="0.22em" fill="#e4c88f" font-weight="600">TVRĐA</text>
  </g>

  <!-- Hedonist pin, Vukovarska 31 -->
  <circle cx="138" cy="196" r="30" fill="url(#pinGlow)"/>
  <g transform="translate(138,192)">
    <path d="M0 -17 C8.5 -17 15 -10.5 15 -2.5 C15 7.5 4 20 0 25 C-4 20 -15 7.5 -15 -2.5 C-15 -10.5 -8.5 -17 0 -17 Z"
          fill="#c9a063" stroke="#17110d" stroke-width="1.6"/>
    <circle cx="0" cy="-2.5" r="5" fill="#17110d"/>
  </g>
  <text x="158" y="184" font-family="Jost, 'Segoe UI', sans-serif" font-size="10" font-weight="700"
        letter-spacing="0.12em" fill="#e4c88f">HEDONIST</text>
  <text x="158" y="195" font-family="Jost, 'Segoe UI', sans-serif" font-size="7.5"
        letter-spacing="0.06em" fill="#f4ecdb" opacity="0.7">Vukovarska cesta 31</text>

  <!-- compass + scale -->
  <g transform="translate(452,118)" opacity="0.85">
    <circle r="11" fill="none" stroke="#c9a063" stroke-width="1"/>
    <path d="M0 -8 L3 4 L0 1.5 L-3 4 Z" fill="#e4c88f"/>
    <text y="-15" text-anchor="middle" font-family="Jost, 'Segoe UI', sans-serif" font-size="8"
          fill="#e4c88f" font-weight="600">N</text>
  </g>
  <g transform="translate(22,242)" opacity="0.6">
    <path d="M0 0 H36" stroke="#f4ecdb" stroke-width="1"/>
    <path d="M0 -3 V3 M36 -3 V3" stroke="#f4ecdb" stroke-width="1"/>
    <text x="42" y="3" font-family="Jost, 'Segoe UI', sans-serif" font-size="7" fill="#f4ecdb">500 m</text>
  </g>

  <rect width="480" height="260" fill="url(#vignette)"/>
  <rect width="480" height="260" filter="url(#grain)"/>
</svg>
