<svg viewBox="0 0 400 220" xmlns="http://www.w3.org/2000/svg" role="img" aria-hidden="true">
  <defs>
    <linearGradient id="bg" x1="0" y1="0" x2="1" y2="1">
      <stop offset="0" stop-color="#2b1f16"/>
      <stop offset="1" stop-color="#1c140e"/>
    </linearGradient>
    <radialGradient id="glow" cx="50%" cy="50%" r="50%">
      <stop offset="0" stop-color="#e4c88f" stop-opacity="0.32"/>
      <stop offset="1" stop-color="#e4c88f" stop-opacity="0"/>
    </radialGradient>
  </defs>

  <rect width="400" height="220" fill="url(#bg)"/>

  <g fill="#c9a063" opacity="0.08">
    <rect x="24" y="18" width="64" height="46" rx="4"/>
    <rect x="104" y="30" width="50" height="34" rx="4"/>
    <rect x="270" y="20" width="70" height="50" rx="4"/>
    <rect x="30" y="140" width="80" height="54" rx="4"/>
    <rect x="290" y="128" width="62" height="62" rx="4"/>
    <rect x="150" y="150" width="46" height="40" rx="4"/>
  </g>

  <g stroke="#c9a063" stroke-opacity="0.22" stroke-width="2" fill="none">
    <path d="M0 70 H400"/>
    <path d="M0 150 H400"/>
    <path d="M90 0 V220"/>
    <path d="M230 0 V220"/>
    <path d="M310 0 V220"/>
  </g>
  <g stroke="#e4c88f" stroke-opacity="0.12" stroke-width="1" fill="none">
    <path d="M0 108 H400"/>
    <path d="M170 0 V220"/>
  </g>

  <circle cx="200" cy="112" r="72" fill="url(#glow)"/>
  <g transform="translate(200,100)">
    <path d="M0 -34 C17 -34 30 -21 30 -5 C30 15 8 40 0 50 C-8 40 -30 15 -30 -5 C-30 -21 -17 -34 0 -34 Z"
          fill="#c9a063" stroke="#17110d" stroke-width="2"/>
    <circle cx="0" cy="-5" r="10" fill="#17110d"/>
  </g>
</svg>
